inDegrees=yes
name=ik_lifting_orientations
DataType=double
version=3
OpenSimVersion=4.5-2024-01-10-34fd6af
endheader
time	pelvis_tilt	pelvis_list	pelvis_rotation	pelvis_tx	pelvis_ty	pelvis_tz	hip_flexion_r	hip_adduction_r	hip_rotation_r	knee_angle_r	knee_angle_r_beta	ankle_angle_r	subtalar_angle_r	mtp_angle_r	hip_flexion_l	hip_adduction_l	hip_rotation_l	knee_angle_l	knee_angle_l_beta	ankle_angle_l	subtalar_angle_l	mtp_angle_l	lumbar_extension	lumbar_bending	lumbar_rotation	arm_flex_r	arm_add_r	arm_rot_r	elbow_flex_r	pro_sup_r	wrist_flex_r	wrist_dev_r	arm_flex_l	arm_add_l	arm_rot_l	elbow_flex_l	pro_sup_l	wrist_flex_l	wrist_dev_l
1.11	1.360098829529958	1.242346859379929	-94.79600937949361	0	0.9399999998679526	0	45.9578430639613	-10.38234446745077	0	61.18262470559531	1.067838246124664	-4.72798639539679	0	0	45.9578430639613	-10.38234446745077	0	61.18262470559531	1.067838246124664	-4.72798639539679	0	0	2.033865150218532	-1.923065773957661	-0.03764164202680884	10.8934227687702	-22.75301461055007	7.31580752682347	0.07602193737819847	0.9229947172428371	0	0	0	-9.863406865863677	0	89.15326230820665	0.9229947172428371	0	0
1.12	1.495969048839605	1.340192197911358	-94.99395871807189	0	0.9399999998679526	0	45.9573453510148	-10.38164840582486	0	61.18214354145616	1.067829848226194	-4.728632630207881	0	0	45.9573453510148	-10.38164840582486	0	61.18214354145616	1.067829848226194	-4.728632630207881	0	0	2.165208734189154	-2.036924095914733	0.1982249189860492	12.91449732744972	-22.79900661616238	8.649356560311082	0.05012291719160918	0.922661343022658	0	0	0	-9.864773887182233	0	89.15356807341729	0.922661343022658	0	0
1.13	1.628555545630989	1.471041146456585	-94.94614886804662	0	0.9399999998679526	0	45.95695775246178	-10.38110736335313	0	61.18176858513265	1.067823304003797	-4.729134618769021	0	0	45.95695775246178	-10.38110736335313	0	61.18176858513265	1.067823304003797	-4.729134618769021	0	0	2.330279368290743	-2.190995209075259	0.2365497642291935	15.08770461960994	-22.7898865122373	10.14757586335009	0.0402011215660737	0.9224016318017442	0	0	0	-9.865839130042929	0	89.15380627617535	0.9224016318017442	0	0
1.14	1.772696867216256	1.606471526353943	-94.961657682208	0	0.9399999998679526	0	45.95657244168117	-10.38057005419959	0	61.18139581197852	1.067816797884895	-4.729632928731897	0	0	45.95657244168117	-10.38057005419959	0	61.18139581197852	1.067816797884895	-4.729632928731897	0	0	2.486816395381274	-2.324416061756972	0.3715933806150538	17.26287892845556	-22.75454058207271	11.61358096136568	0.03340295433006502	0.9221434223224417	0	0	0	-9.866898288332054	0	89.15404310156435	0.9221434223224417	0	0
1.15	1.836759811691155	1.661743932890319	-95.00559761289746	0	0.9399999998679526	0	45.95614714766553	-10.37997746697814	0	61.18098439638943	1.067809617328271	-4.730182285686666	0	0	45.95614714766553	-10.37997746697814	0	61.18098439638943	1.067809617328271	-4.730182285686666	0	0	2.552865283115532	-2.40312221727394	0.4341367431327551	19.34384954908491	-22.65592728509992	13.30370238628636	0.02824508236064436	0.921858403252375	0	0	0	-9.86806743441746	0	89.15430451626069	0.921858403252375	0	0
1.16	1.897314851747975	1.684917542427766	-95.60479339754033	0	0.9399999998679526	0	45.95574471214889	-10.37941749770686	0	61.18059498194356	1.067802820764036	-4.730701129613531	0	0	45.95574471214889	-10.37941749770686	0	61.18059498194356	1.067802820764036	-4.730701129613531	0	0	2.636742265955842	-2.446010190587913	1.007645473318222	21.3895327024883	-22.45740444568891	15.16169760320964	0.0249817551219819	0.921588646949292	0	0	0	-9.869174127486126	0	89.1545519322088	0.921588646949292	0	0
1.17	1.95542029659564	1.74287189216544	-96.07075124952021	0	0.9399999998679526	0	45.9552424526194	-10.37871900753033	0	61.18010916206303	1.067794341607549	-4.73134807867024	0	0	45.9552424526194	-10.37871900753033	0	61.18010916206303	1.067794341607549	-4.73134807867024	0	0	2.750641663805769	-2.530480943725772	1.343425495480383	23.47080631199131	-22.06642780968308	17.07455762660809	0.02258488797311754	0.9212519932858172	0	0	0	-9.870555170762985	0	89.15486070529168	0.9212519932858172	0	0
1.18	1.923738921057635	1.688841686485431	-96.51879427320124	0	0.9399999998679526	0	45.95474953255625	-10.37803450631534	0	61.17963226046338	1.067786018104427	-4.731981699507085	0	0	45.95474953255625	-10.37803450631534	0	61.17963226046338	1.067786018104427	-4.731981699507085	0	0	2.770046985614648	-2.533983926043828	1.528439654806252	25.6536264666343	-21.53987958412799	19.25721920402804	0.02067989136085014	0.9209215307468088	0	0	0	-9.8719110007836	0	89.15516379998539	0.9209215307468088	0	0
1.19	1.900301812103752	1.621869154466557	-97.23503113805597	0	0.9399999998679526	0	45.95434895725972	-10.37747934770313	0	61.17924440818169	1.0677792488051	-4.732495253841275	0	0	45.95434895725972	-10.37747934770313	0	61.17924440818169	1.0677792488051	-4.732495253841275	0	0	2.787087312826354	-2.526754378150772	1.980265874487087	27.7240150761713	-20.87045087565645	21.34470777490603	0.01920094276461165	0.9206528713525743	0	0	0	-9.873013590964476	0	89.15541020988084	0.9206528713525743	0	0
1.2	1.967324467409244	1.658415428835583	-97.80587510438973	0	0.9399999998679526	0	45.95389881640495	-10.37685589774036	0	61.17880868081893	1.067771643927979	-4.7330717620892	0	0	45.95389881640495	-10.37685589774036	0	61.17880868081893	1.067771643927979	-4.7330717620892	0	0	2.878408151832376	-2.581398798642453	2.310063386430762	29.63373813374064	-20.24816757270173	23.22578301836179	0.01807759295099716	0.9203509706079473	0	0	0	-9.874252559852687	0	89.1556871081867	0.9203509706079473	0	0
1.21	2.029854742842839	1.692581151831313	-98.19640729934356	0	0.9399999998679526	0	45.95348747619385	-10.37628685108016	0	61.17841046085923	1.067764693678535	-4.733597705901653	0	0	45.95348747619385	-10.37628685108016	0	61.17841046085923	1.067764693678535	-4.733597705901653	0	0	2.994681712369343	-2.666061806857304	2.528595167867747	31.65786356440848	-19.55665111350057	25.01299573015154	0.01722343215710218	0.9200750515331407	0	0	0	-9.875385006017092	0	89.15594017654408	0.9200750515331407	0	0
1.22	2.094369262633498	1.770224657664489	-98.25843214285838	0	0.9399999998679526	0	45.95314126395537	-10.37580868890335	0	61.17807507790969	1.067758840141811	-4.734039410498659	0	0	45.95314126395537	-10.37580868890335	0	61.17807507790969	1.067758840141811	-4.734039410498659	0	0	3.106410457161087	-2.762786344402622	2.378261805132295	33.57578202597321	-18.88442584327975	26.70557066438585	0.01671575376981239	0.9198427422034698	0	0	0	-9.876338703784549	0	89.15615324677945	0.9198427422034698	0	0
1.23	2.083999790214972	1.739402676869175	-98.45128965721332	0	0.9399999998679526	0	45.95273826222284	-10.37525237855582	0	61.17768479820678	1.067752028475991	-4.734553134834584	0	0	45.95273826222284	-10.37525237855582	0	61.17768479820678	1.067752028475991	-4.734553134834584	0	0	3.119482211629742	-2.771036107733785	2.291164267203913	35.52413640612469	-18.08729052312773	28.49696572967399	0.01623922962365941	0.9195723342199018	0	0	0	-9.877448749800537	0	89.15640126046372	0.9195723342199018	0	0
1.24	2.067269435914265	1.721237626863942	-98.65151256611483	0	0.9399999998679526	0	45.95228325865254	-10.37462466443724	0	61.1772443065643	1.067744340446502	-4.735132573617951	0	0	45.95228325865254	-10.37462466443724	0	61.1772443065643	1.067744340446502	-4.735132573617951	0	0	3.147886863127435	-2.785093174306734	2.272208205141528	37.50839114570564	-17.1580284251839	30.36746995095145	0.01612141685889156	0.91926704257673	0	0	0	-9.878701921892572	0	89.15668126885789	0.91926704257673	0	0
1.25	2.093811975400012	1.73692211490839	-98.68278367842461	0	0.9399999998679526	0	45.95192501813991	-10.37413152143141	0	61.17689713288667	1.067738281122751	-4.735587491244109	0	0	45.95192501813991	-10.37413152143141	0	61.17689713288667	1.067738281122751	-4.735587491244109	0	0	3.210803409096238	-2.842632769979884	1.957707130465423	39.03234789086868	-16.43159379734625	31.84387913762214	0.01722718648352039	0.9190265578365049	0	0	0	-9.879689449251474	0	89.15690183745284	0.9190265578365049	0	0
1.26	2.076685935727442	1.710751078912598	-99.04274494964866	0	0.9399999998679526	0	45.9515578279857	-10.37362642837378	0	61.17654133459251	1.067732071271045	-4.736053257172678	0	0	45.9515578279857	-10.37362642837378	0	61.17654133459251	1.067732071271045	-4.736053257172678	0	0	3.196970062350504	-2.815422577144965	2.045027312387102	40.92704221755195	-15.43460657251134	33.46470127828387	0.01712766778282306	0.9187800565546769	0	0	0	-9.880701681280097	0	89.15712792432068	0.9187800565546769	0	0
1.27	2.068685387962902	1.689797700841911	-99.40184355349139	0	0.9399999998679526	0	45.95120224335231	-10.37313771007171	0	61.17619678535554	1.067726057752425	-4.736503749639493	0	0	45.95120224335231	-10.37313771007171	0	61.17619678535554	1.067726057752425	-4.736503749639493	0	0	3.197634080544463	-2.799927641519499	2.24986044890384	42.75968610890981	-14.42146362650253	34.97106083915985	0.01709450916764982	0.9185413270898268	0	0	0	-9.881682036826357	0	89.15734688300957	0.9185413270898268	0	0
1.28	2.102007208239276	1.705362255393043	-99.62166980567739	0	0.9399999998679526	0	45.95079317914481	-10.37257566763622	0	61.17580060067954	1.067719143025383	-4.737021677421539	0	0	45.95079317914481	-10.37257566763622	0	61.17580060067954	1.067719143025383	-4.737021677421539	0	0	3.221360397222083	-2.809183478476158	2.467695745057168	44.54689654663406	-13.42558296907904	36.33404382167483	0.01757991710833126	0.9182667177296902	0	0	0	-9.88280961560822	0	89.15759875013963	0.9182667177296902	0	0
1.29	2.210613026094031	1.835485385799801	-98.97329457671167	0	0.9399999998679526	0	45.9505023496243	-10.37217714268467	0	61.17551849680297	1.067714219383904	-4.737388658648096	0	0	45.9505023496243	-10.37217714268467	0	61.17551849680297	1.067714219383904	-4.737388658648096	0	0	3.344559862116235	-2.93981252473891	1.769654122959524	46.25153455334718	-12.31032720219918	37.70311520083766	0.01786743685670226	0.9180713501159147	0	0	0	-9.883612248471017	0	89.15777793807021	0.9180713501159147	0	0
1.3	2.248819646442956	1.864819502425166	-98.95763325181431	0	0.9399999998679526	0	45.95015192245402	-10.37169678986329	0	61.17517889127501	1.067708292149283	-4.737830927926932	0	0	45.95015192245402	-10.37169678986329	0	61.17517889127501	1.067708292149283	-4.737830927926932	0	0	3.353251206916144	-2.946980141718688	1.720879090797278	47.95482888504522	-11.17038460290928	39.01704868358468	0.01825892219753836	0.9178360112937765	0	0	0	-9.884578848212138	0	89.15799378692508	0.9178360112937765	0	0
1.31	2.222534729528566	1.854689039433105	-98.87541276449635	0	0.9399999998679526	0	45.94985564236822	-10.37129133560983	0	61.17489154602995	1.067703277028667	-4.738204044952871	0	0	45.94985564236822	-10.37129133560983	0	61.17489154602995	1.067703277028667	-4.738204044952871	0	0	3.256005999008398	-2.860270180821534	1.545097258302983	49.54952618789237	-9.977611835846817	40.36619104729785	0.017926036251568	0.917636964447918	0	0	0	-9.885396615097669	0	89.15817634938838	0.917636964447918	0	0
1.32	2.213205425898103	1.836209768658686	-98.80043181815672	0	0.9399999998679526	0	45.94942472345028	-10.37070129358842	0	61.17447410465022	1.067695991302156	-4.738746964115537	0	0	45.94942472345028	-10.37070129358842	0	61.17447410465022	1.067695991302156	-4.738746964115537	0	0	3.116705150779335	-2.736997656387712	1.539074287688989	51.14964417081068	-8.836320498904502	41.60286096473592	0.01742139407322732	0.9173475684895358	0	0	0	-9.886585180582493	0	89.15844177855118	0.9173475684895358	0	0
